<?xml version="1.0" standalone="no"?>
<!DOCTYPE svg PUBLIC "-//W3C//DTD SVG 1.1//EN" "http://www.w3.org/Graphics/SVG/1.1/DTD/svg11.dtd" >
<svg xmlns="http://www.w3.org/2000/svg">
<metadata>Generated by IcoMoon</metadata>
<defs>
<font id="28px-honda" horiz-adv-x="512">
<font-face units-per-em="512" ascent="480" descent="-32" />
<missing-glyph horiz-adv-x="512" />
<glyph unicode="&#x20;" d="" horiz-adv-x="256" />
<glyph unicode="&#xe000;" d="M256.073 347.41c54.199 0 99.255-39.534 108.087-91.245h18.487c-9.033 61.842-62.263 109.531-126.574 109.531-64.311 0-117.541-47.689-126.573-109.531h18.469c8.851 51.712 53.888 91.245 108.105 91.245zM384.11 237.897h-18.286c0-0.091 0.019-0.183 0.019-0.274 0-54.345-39.699-99.438-91.575-108.16l0.019 35.219h-36.279v-35.236c-51.95 8.668-91.721 53.779-91.721 108.178 0 0.091 0.018 0.183 0.018 0.274h-18.285c0-0.091-0.018-0.183-0.018-0.274 0-70.62 57.453-128.091 128.073-128.091s128.073 57.472 128.073 128.091c-0.019 0.091-0.036 0.183-0.036 0.274zM182.565 219.685h-18.286v36.425h29.714zM329.143 219.685h18.286v36.425h-29.714zM292.443 256.165h-72.905c-10.149 0-18.395-8.228-18.395-18.413l36.7-54.363h36.443l36.572 54.363c0 10.185-8.247 18.413-18.413 18.413z" />
<glyph unicode="&#xe001;" d="M201.143 310.857h-18.285v-36.571h-36.572v-18.286h36.572v-36.572h18.286v36.572h36.572v18.286h-36.572zM359.149 292.553l-11.428 11.428-27.428-27.411-27.428 27.428-11.428-11.428 27.428-27.428-27.428-27.428 11.428-11.428 27.428 27.428 27.428-27.428 11.428 11.428-27.428 27.428zM164.571 164.572h54.857v-18.286h-54.857zM292.572 182.857h54.857v-18.286h-54.857zM292.572 146.286h54.857v-18.286h-54.857z" />
<glyph unicode="&#xe002;" d="M256 72.576l-77.751 89.911c-18.359 23.241-41.179 52.132-41.179 84.553 0 65.445 53.523 118.674 119.241 118.674 65.317 0 118.528-53.229 118.601-118.674 0-32.457-22.857-61.385-41.216-84.626l-77.696-89.837zM256.384 347.447c-55.698 0-100.974-45.038-100.974-100.389 0-26.057 19.785-51.145 37.23-73.252l63.36-71.516 63.379 71.479c17.5 22.108 37.321 47.195 37.321 73.289-0.073 55.332-45.129 100.388-100.315 100.388zM256.531 183.314c-35.127 0-63.671 28.617-63.671 63.835 0 35.127 28.563 63.671 63.671 63.671 35.145 0 63.689-28.563 63.689-63.671 0.055-35.181-28.544-63.835-63.689-63.835zM256.531 292.572c-25.052 0-45.385-20.37-45.385-45.385 0-25.088 20.334-45.513 45.385-45.513 25.015 0 45.404 20.425 45.404 45.513 0.055 24.997-20.389 45.385-45.404 45.385z" />
<glyph unicode="&#xe003;" d="M201.052 73.143h109.715v-18.286h-109.714zM310.839 347.429h-36.572v-73.143h-36.572v73.143h-36.572l-36.553-54.857v-36.589c0-37.376 22.674-77.239 54.857-91.411l-0.018-73.143h18.286l0.018 85.577c-31.488 8.156-54.857 44.964-54.857 78.995l-0.018 29.001 25.856 44.142h10.715v-73.143h73.143v73.143h10.716l25.856-44.142 0.019-29.001c0-34.029-23.351-70.839-54.857-78.995l-0.019-85.577h18.286l0.019 73.143c32.201 14.171 54.857 54.053 54.857 91.428v36.572l-36.589 54.857z" />
<glyph unicode="&#xe004;" d="M164.571 329.143l-0.036-219.429h182.893v219.428h-182.857zM329.143 128h-146.322v182.857h146.322v-182.857zM201.143 292.572h36.571v-54.857h-36.572zM310.857 292.572h-54.857v-18.505l54.857 0.22zM256 256h54.857v-18.285h-54.857zM201.143 219.429h109.715v-18.286h-109.714zM201.143 182.857h109.715v-18.505h-109.714z" />
<glyph unicode="&#xe005;" d="M237.714 237.714l-36.572 36.572h-41.143c-38.199-2.413-68.572-34.377-68.572-73.143 0-38.748 30.373-70.711 68.572-73.143h41.143l36.572 36.572v17.719h73.143v37.175h-73.143v18.249zM219.429 172.142l-25.856-25.856h-32.951c-28.581 2.084-50.907 26.075-50.907 54.857s22.327 52.791 50.907 54.857h32.951l25.856-25.856v-58.002zM384 237.714v-18.286c10.112 0 18.286-8.211 18.286-18.286s-8.173-18.286-18.286-18.286v-18.286c20.188 0 36.572 16.384 36.572 36.572s-16.384 36.572-36.572 36.572zM329.143 237.714v-18.286c10.112 0 18.286-8.211 18.286-18.286s-8.173-18.286-18.286-18.286v-18.286c20.188 0 36.572 16.384 36.572 36.572s-16.384 36.572-36.572 36.572zM134.839 203.557c0-0.001 0-0.002 0-0.003 0-9.473 7.679-17.152 17.152-17.152 9.471 0 17.15 7.678 17.152 17.149 0 9.473-7.679 17.152-17.152 17.152-9.473 0-17.152-7.679-17.152-17.152z" />
<glyph unicode="&#xe006;" d="M256.019-18.322l-237.714 237.787 237.714 237.714 237.678-237.714z" />
<glyph unicode="&#xe007;" d="M420.572 256l-310.857 164.572h-18.285l-18.285-18.286v-365.714l18.285-18.286h18.285l310.857 164.572 18.286 18.286v36.572z" />
<glyph unicode="&#xe008;" d="M457.625 335.409c-13.464-5.979-27.947-10.020-43.124-11.819 15.5 9.283 27.411 24.003 33.017 41.533-14.519-8.606-30.574-14.86-47.695-18.212-13.696 14.592-33.213 23.699-54.803 23.699-41.466 0-74.27-33.609-75.106-75.088-0.2-9.807 3.084-15.738 4.371-21.236-62.409 3.145-127.536 46.001-164.571 91.428-6.467-11.069-10.179-23.984-10.179-37.729 0-26.051 20.644-57.892 40.784-71.357-12.3 0.372-38.767 12.051-48.891 17.659-0.019-0.304-0.019-0.628-0.019-0.945 0-36.376 40.783-75.001 75.124-81.895-6.284-1.731-12.928-2.645-19.767-2.645-4.857 0-9.552 0.464-14.141 1.341 9.552-29.824 37.303-51.553 70.162-52.144-25.697-20.121-51.59-28.283-86.79-28.283-6.052 0-12.568 0-24.57 0 33.213-21.321 77.891-36.553 120.302-36.553 138.124 0 208.64 114.425 208.64 213.644 0.007 3.267 0.36 2.554 0.201 5.767 14.677 10.587 26.983 27.788 37.053 42.837z" />
<glyph unicode="&#xe009;" d="M189.16 324.437l-9.197-9.216-68.98 68.968-12.928-12.928 0.055-0.036-78.361-78.379 68.894-68.913-9.448-9.465 12.928-12.928 109.964 109.964-12.928 12.933zM45.605 292.864l65.427 65.426 55.984-56.003-65.427-65.427-55.984 56.003zM475.856 292.846l-2.786 2.804-75.569 75.568 0.055 0.037-12.928 12.928-68.98-68.962-9.197 9.216-12.928-12.928 109.964-109.964 12.928 12.928-9.447 9.465 68.889 68.907zM394.021 236.867l-65.426 65.427 55.985 56.003 65.427-65.426-55.985-56.003zM363.965 221.105l-12.928 12.928-61.141-61.141c-4.858 11.715-14.428 20.894-26.356 25.356l61.641 61.653-12.928 12.928-64.731-64.761-64.75 64.762-12.928-12.928 61.641-61.653c-11.911-4.462-21.498-13.641-26.356-25.356l-61.141 61.141-12.928-12.928 71.125-71.143c2.676-22.284 21.212-39.68 44.087-40.32 0.409 0 0.804-0.11 1.232-0.11h0.036c0.427 0 0.823 0.11 1.232 0.11 22.875 0.64 41.411 18.036 44.087 40.32l71.107 71.144zM247.552 182.997c15.196 0 27.556-12.392 27.556-27.605 0-7.607-3.091-14.5-8.070-19.462-4.998-4.998-11.911-8.107-19.517-8.107s-14.519 3.108-19.517 8.107c-4.98 4.962-8.071 11.856-8.089 19.462 0.013 15.214 12.368 27.605 27.637 27.605zM365.909 182.699l-18.804-18.804c0.213-2.767 0.36-5.534 0.36-8.32 0-55.394-45.038-100.462-100.382-100.462-55.394 0-100.462 45.075-100.462 100.462 0 2.962 0.135 5.913 0.391 8.839l-18.56 18.553c0-15.536-0.116-24.375-0.116-27.392 0-65.5 53.267-118.748 118.748-118.748 65.42 0 118.668 53.248 118.668 118.748 0 3.017 0.159 8.997 0.159 27.124z" />
<glyph unicode="&#xe00a;" d="M457.143 329.283v-19.102h-420.572v19.102h-18.285v-54.857h18.285v17.469h420.572v-20.322h18.286v57.709zM18.285 219.289v-109.714h457.143v109.714h-457.143zM457.143 127.86h-420.572v73.161h36.572v-54.736h18.285v54.729h36.572v-36.589h18.285v36.589h36.572v-36.589h18.286v36.589h36.572v-36.589h18.286v36.589h36.572v-54.729h18.286v54.729h36.572v-36.589h18.286v36.589h36.572v-36.589h18.286v36.589h36.572v-73.155z" />
<glyph unicode="&#xe00b;" d="M164.571 219.374h182.857v-18.176h-182.857z" />
<glyph unicode="&#xe00c;" d="M365.824 199.936l-91.264-91.264-18.852 18.871 91.246 91.245zM111.037 73.143h23.186c-26.045 29.075-42.045 67.322-42.045 109.337 0 90.539 73.648 164.193 164.188 164.193 90.526 0.006 164.206-73.655 164.206-164.193 0-42.015-16-80.262-42.051-109.337h23.607c22.942 30.519 36.73 68.303 36.73 109.337 0 100.626-81.859 182.479-182.491 182.479-100.615 0-182.473-81.859-182.473-182.479 0-41.283 13.94-79.287 37.144-109.891v0.555z" />
<glyph unicode="&#xe00d;" d="M270.428 457.143c-129.591 0-196.925-91.233-196.925-168.697 0-46.909 23.747-88.984 61.843-104.515 6.26-2.555 8.528-0.824 11.35 5.784 2.572 5.979 4.98 31.055-0.055 37.017-11.001 12.947-18 29.733-18 53.479 0 68.931 51.572 130.627 134.303 130.627 73.235 0 113.5-44.751 113.5-104.515 0-78.623-34.822-145.036-86.498-145.036-28.538 0-49.877 23.607-43.051 52.553 8.198 34.572 24.070 71.839 24.070 96.786 0 22.339-15.372 37.534-40.18 37.534-29.141 0-49.177-26.752-49.177-67.193 0-25.735 8.661-43.124 8.661-43.124s-30.696-126.324-35.072-148.663c-13.373-68.231-6.748-96.841-6.498-104.82 0.109-3.285 5.717-3.395 7.571-0.945 2.713 3.499 42.032 46.945 53.839 89.82 3.358 12.142 11.538 73.57 11.538 73.57 9.465-18.072 45.196-37.303 74.624-37.303 87.735 0 142.946 84.144 142.946 191.123 0 80.951-64.645 156.519-168.788 156.519z" />
<glyph unicode="&#xe00e;" d="M54.857 201.033h402.286v-18.176h-402.286z" />
<glyph unicode="&#xe00f;" d="M256.055 238.288c50.304 0 91.197 40.911 91.197 91.216 0 50.286-40.893 91.197-91.197 91.197-50.286 0-91.197-40.911-91.197-91.197 0-50.305 40.911-91.216 91.197-91.216zM256.055 402.414c40.199 0 72.911-32.713 72.911-72.912 0-40.216-32.713-72.929-72.911-72.929s-72.911 32.713-72.911 72.93c0 40.192 32.713 72.911 72.911 72.911zM164.571 128.11h18.285v-128.415h-18.286zM374.912 219.429h-237.769c-25.216 0-45.715-20.498-45.715-45.714v-174.019h18.285v174.019c0 15.123 12.306 27.428 27.429 27.428h237.769c15.14 0 27.428-12.306 27.428-27.428v-174.019h18.286v174.019c0 25.216-20.498 45.714-45.714 45.714zM329.197 128.11h18.286v-128.415h-18.286z" />
<glyph unicode="&#xe010;" d="M420.949 36.572h18.286v365.714h-384.377v-365.714h366.092zM420.949 383.622v-328.765h-347.428v328.765h347.428zM457.521 384v-365.714h-384v-18.286h402.286v384zM110.092 346.856v-200.57h274.286v200.57h-274.286zM365.714 164.572l-237.714 0.286v164.285h237.714v-164.571z" />
<glyph unicode="&#xe011;" d="M146.286 36.572h220.002v-18.286h-220.001zM384 357.145v26.861h18.286v18.285h-292.572v-18.285l18.285-0.007v-182.857h36.572v-146.286h18.285v146.286h146.286v-146.286h18.286v36.767c72.003 3.858 129.427 63.464 129.427 136.411 0 58.539-37.943 110.404-92.855 129.109zM146.286 219.429v164.571h219.429v-164.571h-219.429zM347.428 109.909v91.233h36.572v136.533c44.355-17.804 74.569-61.056 74.569-109.641 0-62.853-49.231-114.304-111.141-118.125zM201.143 347.429v-91.428h109.715v91.428h-109.714zM292.572 274.286h-73.143v54.857h73.143v-54.857z" />
<glyph unicode="&#xe012;" d="M146.395 310.857h55.339v41.606c0 20.072 0.555 51.072 15.111 70.284 15.372 20.321 36.535 34.127 72.82 34.127 59.124 0 84.072-8.43 84.072-8.43l-11.752-69.516c0 0-19.517 5.699-37.767 5.699s-31.537-5.236-31.537-23.485v-50.285h73.143l-6.857-73.143h-66.286v-237.714h-91.428l0.482 237.714h-55.339v73.143z" />
<glyph unicode="&#xe013;" d="M54.857 347.301h91.429v-18.158h-91.428zM54.857 310.729h91.429v-18.158h-91.428zM54.857 109.586h91.429v-18.158h-91.428zM54.857 73.015h91.429v-18.158h-91.428zM91.788 54.748h-18.285v-18.176l9.106-9.070 8.93-8.856v-0.36h36.462v18.286h-36.212zM164.571 274.286h-128v-54.857h-18.285v-91.428h164.571v91.428h-18.286v54.857zM36.572 201.143h18.413v-54.857h-18.413v54.857zM128.128 201.143v-54.857h-54.985v54.857h54.985zM164.571 146.286h-18.285v54.857h18.286v-54.857zM54.729 219.429v36.7h91.678l0.006-36.7h-91.684zM91.3 365.714h36.578l-0.007 54.357h-0.121v0.5h-54.358v-0.5h-0.249v-54.357h18.157zM91.3 383.872v18.542h18.413v-18.536l-18.413-0.007zM347.428 347.301h91.428v-18.158h-91.428zM347.428 310.729h91.428v-18.158h-91.428zM347.428 109.586h91.428v-18.158h-91.428zM347.428 73.015h91.428v-18.158h-91.428zM401.926 36.572h-36.212v-18.286h36.462v0.36l8.93 8.856 9.106 9.070v18.176h-18.286zM457.143 219.429v54.857h-128v-54.857h-18.286v-91.428h164.572v91.428h-18.286zM347.3 256.128h91.678l0.007-36.7h-91.678l-0.007 36.7zM420.7 201.143v-54.857h-54.985v54.857h54.985zM329.143 201.143h18.413v-54.857h-18.413v54.857zM457.143 146.286h-18.286v54.857h18.286v-54.857zM237.982 274.292h18.157v-146.274h-18.157zM383.872 365.714h36.577l-0.007 54.357h-0.128l0.007 0.5h-54.357v-0.5h-0.25v-54.357h18.158zM383.872 383.872v18.542h18.413v-18.536l-18.413-0.007z" />
<glyph unicode="&#xe014;" d="M109.843 237.714h18.157v-91.428h-18.157zM146.413 237.714h18.157v-91.428h-18.157zM347.557 237.714h18.158v-91.428h-18.158zM420.572 219.429h-18.286v18.286h-18.157v-91.428h18.158v54.857h0.11v-0.36h18.176v-36.212h18.286v36.572zM237.714 256h-54.857v-128h54.857v-18.286h91.428v164.571h-91.428v-18.285zM237.714 146.158h-36.7v91.678l36.7 0.006v-91.684zM256 256h54.857v-18.285h-54.857v18.286zM256 219.557h54.857v-54.985h-54.857v54.985zM256 146.414h54.857v-18.413h-54.857v18.413zM457.143 200.948h36.572v-18.109h-36.572zM470.199 257.902l12.8-12.8-25.856-25.875-12.818 12.818zM470.217 125.714l-25.875 25.856 12.8 12.819 25.875-25.856zM37.072 219.179h-0.5v-54.357h0.5v-0.25h54.357v54.735l-54.357-0.005v-0.122zM54.729 201.143h18.535v-18.413h-18.535v18.413z" />
<glyph unicode="&#xe015;" d="M183.248 200.765c0-40.395 32.747-73.143 73.143-73.143s73.143 32.747 73.143 73.143c0 40.395-32.747 73.143-73.143 73.143-40.395 0-73.143-32.747-73.143-73.143z" />
<glyph unicode="&#xe016;" d="M292.803 365.824l-18.286-54.857c0 0 95.878-310.967 109.483-310.967s-91.197 365.824-91.197 365.824zM268.807 411.819c0 14.829-12.002 26.856-26.856 26.856-11.3 0-20.912-6.985-24.893-16.847-0.055-0.043-0.109-0.061-0.159-0.11 0 0-0.195-0.793-0.482-1.963-0.377-1.213-0.695-2.444-0.889-3.73-12.026-49.719-99.115-416.597-86.918-416.597 13.214 0 122.502 352.311 137.875 401.56 0.823 1.84 1.426 3.767 1.822 5.796 0 0.007 0.019 0.079 0.019 0.079 0 0.007 0 0.007-0.019 0.019 0.299 1.609 0.5 3.255 0.5 4.937zM241.463 391.436c-10.733 0-19.431 8.697-19.431 19.431s8.697 19.432 19.431 19.432 19.431-8.697 19.431-19.432-8.697-19.431-19.431-19.431z" />
<glyph unicode="&#xe017;" d="M382.891 146.499c-6.248 42.624-21.608 78.708-63.324 141.392-26.618 40.058-71.942 150.791-72.137 151.253-0.195-0.464-45.519-111.195-72.144-151.248-41.716-62.69-57.070-98.767-63.323-141.392-6.857-46.909 4.108-89.801 30.86-120.752 24.32-28.16 60.537-43.788 102.053-44.252l2.554-0.072 2.554 0.073c41.521 0.464 77.733 16.091 102.053 44.252 26.752 30.945 37.712 73.837 30.854 120.746zM338.212 38.949c-21.284-24.625-50.999-37.717-90.697-37.967v-0.055h-0.177v0.055c-39.698 0.25-69.412 13.337-90.697 37.967-23.216 26.856-32.64 64.555-26.569 106.142 5.785 39.661 21.072 73.484 60.537 134.053 21.68 33.286 40.089 69.528 56.82 110.976 16.732-41.447 35.145-77.69 56.82-110.976 39.467-60.575 54.748-94.391 60.538-134.053 6.071-41.594-3.359-79.287-26.575-106.142z" />
<glyph unicode="&#xe018;" d="M402.286 275.932c0 23.741-16.573 44.368-34.731 56.052 4.267 21.589-2.286 43.837-17.908 59.502-15.64 15.652-37.931 22.199-59.538 17.92-7.216 10.8-17.31 19.279-29.038 24.24-8.185 3.462-16.865 5.212-25.782 5.212-0.006 0-0.018 0-0.024 0-22.187 0-42.588-11.124-54.803-29.471-21.559 4.291-43.892-2.274-59.569-17.915-15.659-15.659-22.217-37.955-17.901-59.605-18.347-12.221-29.471-32.615-29.471-54.784 0-22.144 11.136-42.545 29.483-54.796-4.316-21.663 2.243-43.965 17.895-59.605 15.689-15.677 37.998-22.18 59.581-17.877 6.089-9.18 14-16.768 20.919-21.913l-0.007-86.321h-36.821v-18.286h54.857v114.413l-3.98 2.695c-6.821 4.34-16.804 13.288-22.498 24.199l-3.554 6.803-7.315-2.322c-17.195-5.449-35.681-1.017-48.256 11.538-12.544 12.538-16.975 31.055-11.563 48.311l2.285 7.296-6.778 3.548c-16.019 8.357-25.965 24.57-25.965 42.32 0 17.768 9.948 33.975 25.948 42.295l6.802 3.541-2.297 7.315c-5.419 17.249-0.981 35.755 11.557 48.305 12.575 12.556 31.116 16.963 48.292 11.587l7.315-2.292 3.536 6.803c8.302 16 24.515 25.936 42.313 25.936 0 0 0.006 0 0.018 0 6.467 0 12.751-1.268 18.663-3.767 10.020-4.242 18.426-12.117 23.68-22.168l3.553-6.777 7.284 2.286c17.176 5.382 35.694 0.957 48.25-11.581 12.538-12.575 16.963-31.061 11.556-48.268l-2.286-7.315 6.784-3.536c15.049-7.839 31.226-24.796 31.226-43.513 0-17.78-9.947-33.981-24.284-41.643l-13.519-3.919 2.786-8.911c5.163-16.464 0.805-32.743-12.269-45.812-12.575-12.556-31.092-16.945-48.231-11.568l-7.303 2.304-3.553-6.784c-3.797-7.265-9.387-13.623-13.873-18.749-2.877-3.267-5.181-5.998-6.412-7.985l-1.341-2.219v-112.359h54.857v18.286h-36.608v88.503c0.877 1.055 2 2.304 3.231 3.712 3.712 4.212 8.466 9.625 12.642 16.019 21.589-4.248 43.873 2.249 59.52 17.908 15.677 15.677 22.303 35.608 18.841 55.765 20.913 11.769 33.804 33.584 33.804 57.453z" />
<glyph unicode="&#xe019;" d="M201.143 329.143h-36.571l-18.091-54.857h-0.195v-91.428h91.428v91.428h-53.144zM312.57 274.286l16.573 54.857h-36.572l-18.091-54.857h-0.195v-91.428h91.428v91.428z" />
<glyph unicode="&#xe01a;" d="M256.268 457.143c-110.86 0-201.033-90.197-201.033-201.003 0-84.962 53.589-159.341 131.895-188.087l68.548-86.339 69.68 86.339c78.324 28.752 131.877 103.089 131.877 188.087 0 110.805-90.233 201.003-200.966 201.003z" />
<glyph unicode="&#xe01b;" d="M256 255.494h18.286v55.387h54.857v18.286h-54.857v54.327h-18.286v-54.327h-54.857v-18.286h54.857zM493.714 200.93v27.642l-29.519 27.203h-59.124c-16.036-0.426-35.248-10.051-39.356-36.345h-201.149c-4.108 26.295-23.321 35.919-39.339 36.346h-59.136l-29.52-27.203v-27.641h54.857v-36.572h-54.857v-27.642l29.519-26.928 59.136-0.036c16.018-0.14 35.231 9.783 39.339 36.322l201.149-0c4.108-26.539 23.32-36.462 39.357-36.322l59.124 0.036 29.519 26.928v27.642h-54.857v36.572l54.857 0zM438.857 146.073h36.572l-19.285-17.895-0.019-0.39h-51.053c-6.358 0.073-21.072 3.036-21.072 30.287v6.284h-35.712v0.214h-165.047v-0.213h-36.962v-6.284c0-27.252-14.714-30.214-21.053-30.288h-51.066l-0.019 0.39-19.285 17.896h36.572l18.48 18.645v36.212l-18.481 18.499h-36.572l19.303 18.072h51.060c6.339-0.11 21.053-3.036 21.053-30.288v-6.284h237.726v6.284c0 27.252 14.714 30.178 21.072 30.287h51.053l19.303-18.072h-36.572l-18.286-18.499v-36.212l18.286-18.645z" />
<glyph unicode="&#xe01c;" d="M420.572 274.286v128h-73.143v-54.857h-164.571v54.857h-73.143v-128h73.143v54.857h73.143v-237.714h-73.143v54.857h-73.143v-128h73.143v54.857h164.571v-54.857h73.143v128h-73.143v-54.857h-73.143v237.714h73.143v-54.857h73.143zM128 292.572v91.429h36.572v-91.429h-36.572zM128 36.572v91.428h36.572v-91.428h-36.572zM402.286 128v-91.428h-36.572v91.428h36.572zM402.286 384v-91.429h-36.572v91.429h36.572z" />
<glyph unicode="&#xe01d;" d="M256.377 0.963c-100.615 0-182.473 81.859-182.473 182.48s81.859 182.479 182.473 182.479c100.62 0.006 182.479-81.853 182.479-182.473s-81.859-182.486-182.48-182.486zM256.377 347.642c-90.539 0-164.188-73.661-164.188-164.193s73.649-164.193 164.188-164.193 164.194 73.656 164.194 164.195-73.661 164.193-164.193 164.193zM200.875 403.249h109.714v-19.036h-109.714zM255.708 183.351l91.264 91.245 18.853-18.853-91.245-91.245z" />
<glyph unicode="&#xe01e;" d="M237.714 475.429h36.572v-292.572h-36.572z" />
<glyph unicode="&#xe01f;" d="M237.714 475.429h36.572v-512h-36.572z" />
<glyph unicode="&#xe061;" d="M475.428 182.857l-219.429 128-219.429-128v-54.985l219.429 128.109 219.429-127.817z" />
<glyph unicode="&#xe062;" d="M219.429 0l128 219.428-128 219.429h-54.985l128.128-219.429-127.835-219.428z" />
<glyph unicode="&#xe063;" d="M292.443 0l-128 219.428 128 219.429h54.985l-128.128-219.429 127.835-219.428z" />
<glyph unicode="&#xe064;" d="M36.572 255.872l219.428-128 219.428 128v54.985l-219.429-128.11-219.429 127.817z" />
<glyph unicode="&#xe06b;" d="M73.143 441.143h365.714v-18.286h-365.714v18.286zM73.143 441.143h18.285v-438.857h-18.285v438.857zM420.572 441.143h18.286v-438.857h-18.286v438.857zM73.143 20.571h365.714v-18.286h-365.714v18.286zM274.286 349.696h109.714v-36.572h-109.714v36.572zM274.286 276.571h109.714v-36.572h-109.714v36.572zM128 203.429h256v-36.572h-256v36.572zM128 130.286h256v-36.572h-256v36.572zM128 349.714h109.714v-109.714h-109.715v109.714z" />
<glyph unicode="&#xe075;" d="M438.857 36.572h-384v384h274.286v-36.572h-237.714v-310.857h310.857v164.571h36.572zM219.501 145.81l-77.568 77.568 25.856 25.856 51.712-51.712 219.831 219.794 25.856-25.856z" />
<glyph unicode="&#xe076;" d="M420.572 292.572h-36.572v91.429h-256v-91.429h-36.572v128h329.143zM201.143 219.429c0-30.297 24.56-54.857 54.857-54.857 30.297 0 54.857 24.56 54.857 54.857 0 30.297-24.56 54.857-54.857 54.857-30.297 0-54.857-24.56-54.857-54.857zM420.572 18.286h-329.143v128h36.572v-91.428h256v91.428h36.572z" />
<glyph unicode="&#xe077;" d="M91.428 365.714l27.428 27.429-27.428 27.428h-54.857v-54.857zM182.857 274.286l27.429 27.429-27.428 27.428h-146.286v-54.857zM274.286 182.857l27.428 27.428-27.428 27.428h-237.714v-54.857zM365.714 146.286l27.428-27.428-27.428-27.428h-329.143v54.857zM457.143 54.857l27.428-27.428-27.428-27.428h-420.572v54.857z" />
<glyph unicode="&#xe078;" d="M423.57 109.714c-28.269-64.512-92.745-109.714-167.571-109.714-100.828 0-182.857 82.029-182.857 182.857s82.029 182.857 182.857 182.857v-35.748c-81.152 0-147.108-65.993-147.108-147.108s65.957-147.108 147.108-147.108c54.492 0 102.564 29.805 127.982 73.984l39.589-0.019zM347.411 347.429l-91.428-73.143v146.286z" />
<glyph unicode="&#xe079;" d="M128 109.733c25.417-44.178 73.49-73.984 127.981-73.984 81.152 0 147.108 65.993 147.108 147.108s-65.957 147.108-147.108 147.108l0.018 35.748c100.828 0 182.857-82.029 182.857-182.857s-82.029-182.857-182.857-182.857c-74.825 0-139.3 45.202-167.571 109.714l39.571 0.019zM256 420.572v-146.286l-91.428 73.143z" />
<glyph unicode="&#xe080;" d="M144.091 91.429l-70.948 274.286h58.167l42.459-207.872 43.612 207.872h57.581l-71.534-274.286h-59.337zM277.101 124.983l22.656 35.181c13.897-16.238 32.713-28.123 53.742-28.123 20.517 0 36.041 12.452 36.041 32.457 0 49.737-103.607 42.733-103.607 130.889 0 38.948 29.349 70.327 79.214 70.327 28.269 0 53.724-11.356 72.027-30.3l-22.163-34.048c-10.514 13.495-28.781 23.772-48.731 23.772-18.853 0-31.616-12.452-31.616-28.123 0-45.988 104.173-41.637 104.173-130.908 0.019-44.361-34.889-74.679-80.877-74.679-36.553 0-63.707 12.471-80.859 33.555z" />
<glyph unicode="&#xe081;" d="M291.036 86.364l-15.214 10.13 8.796 13.221h-28.435l-28.672 16.147 8.978 15.927 24.467-13.788h35.858l15.579 23.351 15.214-10.13zM109.696 292.572h18.304v-18.285h-18.304zM191.196 12.562l-14.281 11.428 24.32 30.373 146.194 16.384v38.967h70.82c5.101 2.962 21.504 13.44 33.207 31.964 7.277 10.313 14.829 30.208 14.829 50.322 0 64.421-54.437 118.857-118.857 118.857-36.627 0-74.112-19.62-97.829-51.219l-2.743-3.639h-27.428v18.286h18.377c27.538 34.432 68.188 54.857 109.623 54.857 75.63 0 137.143-61.513 137.143-137.143 0-21.303-7.022-45.056-17.901-60.489-15.305-24.192-40.777-40.082-46.099-40.082h-54.857v-37.029l-154.935-17.335-19.584-24.503zM277.76 40.832l34.286-14.080-6.949-16.914-34.286 14.062zM230.162 66.597l-37.34 43.228c-19.108-0.695-49.427 1.719-68.316 19.548-9.673 9.143-14.793 21.303-14.793 35.2v36.572h-54.876l-29.86 49.5 66.487 78.5h48.622l97.701 73.344 54.931-18.451-18.377-54.748-61.861-31.927-8.393 16.256 55.278 28.544 10.204 30.391-28.507 9.545-94.867-71.241h-46.245l-52.535-62.007 17.737-29.422h62.848v-54.857c0-8.978 2.963-16.147 9.052-21.888 11.319-10.679 32.859-15.981 59.282-14.409l4.499 0.274 43.173-49.993-13.843-11.959z" />
<glyph unicode="&#xe082;" d="M256 0h-168.357l-51.072 51.072v346.466l51.651 41.32h167.778v-164.572h-91.428v-109.714h91.428v-164.572zM95.213 18.286h142.5v128h-91.428v146.286h91.428v128h-143.079l-39.778-31.824v-330.105l40.356-40.356zM347.428 237.714h146.286v-18.286h-146.286zM367.324 140.453l103.424-103.424-12.928-12.928-103.424 103.424zM354.396 338.743l103.424 103.442 12.947-12.928-103.442-103.442z" />
<glyph unicode="&#xe083;" d="M74.916 49.5l26.514 97.92c-41.892 23.936-64.859 56.009-64.859 90.844 0 71.46 96.384 127.452 219.428 127.452 123.044 0 219.428-55.991 219.428-127.452s-96.384-127.452-219.429-127.452c-29.952 0-58.971 3.42-86.254 10.112l-94.829-71.424zM256 347.685c-111.085 0-201.472-49.079-201.472-109.403 0-29.129 22.455-57.655 61.623-78.373l6.382-3.365-16.549-61.092 59.868 45.111 4.188-1.097c27.044-7.040 55.972-10.587 85.961-10.587 111.104 0 201.472 49.079 201.472 109.385 0 60.343-90.387 109.421-201.472 109.421z" />
<glyph unicode="&#xe084;" d="M256 0c-120.996 0-219.429 98.469-219.429 219.428 0 120.978 98.432 219.429 219.429 219.429 120.978 0 219.428-98.451 219.428-219.429 0-120.96-98.451-219.428-219.429-219.428zM256 421.303c-111.323 0-201.875-90.569-201.875-201.875 0-111.287 90.551-201.856 201.875-201.856 111.305 0 201.856 90.569 201.856 201.856 0 111.305-90.551 201.875-201.856 201.875zM353.152 109.33l-106.295 106.313v150.071h18.286v-142.5l100.955-100.937z" />
<glyph unicode="&#xe085;" d="M329.143 457.143l164.571-237.714-164.572-237.714zM18.285 457.143h310.857v-475.428h-310.857z" />
<glyph unicode="&#xe086;" d="M238.007 128.146c-19.053 0-40.284 0-49.28 9.637-7.625 8.173-10.862 16.036-12.91 25.856-2.195 10.514-4.956 23.625-17.408 39.625-36.644 47.104-92.709 35.236-115.109 27.94l-2.34-0.695-3.895 16.951 1.938-8.466-2.432 8.339c27.044 8.796 92.581 22.547 136.32-33.7 14.885-19.127 18.213-34.981 20.644-46.574 1.828-8.668 4.005-14.72 7.607-17.353 6.291-4.572 20.589-3.42 36.864-3.712 15.964-0.311 28.398 0.256 34.139 6.949 19.968 23.241 35.053 47.36 49.371 66.871 4.572 6.253 9.289 12.964 11.685 16.64l14.702-9.764c-2.231-3.383-4.151-6.51-8.685-12.654-14.354-19.493-52.736-72.301-52.736-72.301-8.485-11.74-28.745-13.587-48.476-13.587zM409.143 164.188l-43.045 110.099h10.679c6.382-0.293 23.918 0 23.607 0-0.091 0 14.574-0.256 19.822 0 4.352 0.219 7.132 4.388 8.74 7.315 2.249 4.114 2.615 11.099-1.317 15.817l-55.315 54.857 12.58 12.837c0 0 56.393-55.369 58.642-58.66 7.149-10.387 6.803-23.863 1.463-33.646-4.717-8.558-13.659-16.804-24.43-16.804-0.293 0-20.755 0-20.955 0s-7.625 0-7.625 0l33.993-84.572-16.841-7.241zM146.286 146.286c0-30.245-24.612-54.857-54.857-54.857s-54.857 24.613-54.857 54.857c0 26.459 18.834 48.621 43.813 53.724l-6.418 17.317c-31.963-7.827-55.68-36.663-55.68-71.040 0-40.393 32.749-73.143 73.143-73.143s73.143 32.75 73.143 73.143c0 6.327 1.5 12.452 0 18.286h-73.143v-18.286h54.857zM349.733 164.572c-1.5-5.833-2.304-11.959-2.304-18.286 0-40.393 32.75-73.143 73.143-73.143s73.143 32.75 73.143 73.143c0 34.377-23.716 63.214-55.68 71.058l-6.437-17.317c25.015-5.12 43.831-27.283 43.831-53.741 0-30.245-24.613-54.857-54.857-54.857s-54.857 24.613-54.857 54.857c0 6.418 1.115 12.581 3.145 18.304z" />
<glyph unicode="&#xe087;" d="M209.657 238.354l96.342 79.647 2.322-21.839-98.171-81.165zM206.982 226.481l100.48-83.12-5.229-19.395-97.019 80.25zM219.429 146.286h-146.286v146.286h146.286v-146.286zM91.447 164.572h109.678v109.714h-109.677v-109.714zM438.857 292.572h-146.286v146.286h146.286v-146.286zM310.857 310.857h109.714v109.715h-109.714v-109.715zM438.857 0h-146.286v146.286h146.286v-146.286zM310.857 18.286h109.714v109.714h-109.714v-109.714z" />
<glyph unicode="&#xe088;" d="M73.143 365.714h365.714v-18.285h-365.714zM420.572 365.714h18.286v-237.714h-18.286zM73.143 365.714h18.285v-237.714h-18.285zM201.143 109.714h109.715v-18.286h-109.714zM416.256 128l59.173-29.587v-6.985h-438.857v6.985l59.172 29.587h320.512zM420.572 146.286h-329.143l-73.143-36.572v-36.572h475.428v36.572l-73.143 36.572z" />
<glyph unicode="&#xe089;" d="M329.143 256l91.428 91.429-91.428 91.428v-73.197l-73.143 0.055c-78.117 0.018-150.473-50.432-174.702-129.024-29.733-96.457 24.356-198.803 120.85-228.535 17.92-5.504 36.041-8.156 53.851-8.156 78.117-0.036 150.473 50.45 174.702 129.024 5.577 18.121 8.211 35.803 8.156 53.833h-54.857c0.073-12.69-1.792-24.942-5.724-37.724-20.772-67.401-92.563-105.363-159.982-84.572-67.401 20.772-105.362 92.563-84.571 160 16.915 54.875 67.62 90.24 122.295 90.295l73.143-0.019-0.019-54.839z" />
<glyph unicode="&#xe090;" d="M246.875 0c-115.968 0-210.304 94.336-210.304 210.304 0 115.95 94.336 210.267 210.304 210.267 115.95 0 210.268-94.317 210.268-210.267 0-115.968-94.317-210.304-210.268-210.304zM246.875 402.286c-105.875 0-192.018-86.125-192.018-191.981 0-105.875 86.144-192.019 192.018-192.019 105.856 0 191.981 86.144 191.981 192.019 0 105.856-86.125 191.981-191.982 191.981zM448 201.143h-210.286v210.286h18.286v-192h192zM240.403 216.741l12.928-12.928-146.286-146.286-12.928 12.928z" />
<glyph unicode="&#xe091;" d="M36.572 310.565h18.285v-201.143h-18.285zM457.143 310.565h18.286v-201.143h-18.286zM36.572 310.565h438.857v-18.285h-438.857zM109.715 420.279h18.285v-109.715h-18.285zM384 420.279h18.286v-109.715h-18.286zM109.715 420.279h292.572v-18.286h-292.572zM420.572 255.708h18.286v-18.286h-18.286zM164.571 91.136h182.857v-18.286h-182.857zM164.571 127.708h182.857v-18.286h-182.857zM36.572 127.708h91.428v-18.286h-91.428zM384 127.708h91.428v-18.286h-91.428zM109.715 200.85h18.285v-164.571h-18.285zM384 200.85h18.286v-164.571h-18.286zM109.715 200.85h292.572v-18.286h-292.572zM109.715 54.565h292.572v-18.286h-292.572z" />
<glyph unicode="&#xe092;" d="M164.571 329.143l201.143-118.857-201.143-118.857z" />
<glyph unicode="&#xe093;" d="M164.571 329.143h54.857v-237.714h-54.857zM292.572 329.143h54.857v-237.714h-54.857z" />
<glyph unicode="&#xe094;" d="M402.249 91.142v18.286c20.48 0 37.144 16.659 37.144 37.144v200.283c0 20.487-16.664 37.144-37.127 37.144h-291.998c-20.48 0-37.144-16.659-37.144-37.144v-200.283c0-20.48 16.652-37.144 37.126-37.144l237.751 0 17.712-18.286h-255.464c-30.555 0-55.412 24.856-55.412 55.43v200.283c0 30.562 24.869 55.43 55.431 55.43h291.998c30.555 0 55.412-24.868 55.412-55.43v-200.283c0-30.574-24.856-55.43-55.43-55.43zM494.251 17.713h-475.983v55.052l201.161 0v-36.767h73.143v37.163l201.679-0.409v-55.040zM310.857 35.998h165.108v18.499l-165.108 0.341v-18.841zM36.553 35.998h164.589v18.481l-164.589 0v-18.481zM420.572 127.945h-328.856v237.775l328.856-0.299v-237.476zM110.001 146.231h292.285v200.923l-292.285 0.268v-201.191z" />
<glyph unicode="&#xe095;" d="M365.714 311.424v-19.108h-219.429v19.108h-18.285v-55.424h18.286v18.030h219.429v-18.322h18.286v55.716zM128 237.714v-91.813h256.183v91.813h-256.183zM365.038 164.59h-218.459v54.857h17.993v-36.589h18.286v36.589h18.286v-19.072h18.286v19.072h18.286v-18.779h18.286v18.779h18.286v-36.498h18.286v36.498h18.286v-18.011h18.286v18.012h35.895v-54.857z" />
<glyph unicode="&#xe096;" d="M128.347 218.972v-54.4l127.982-73.143h2.396c5.029 0 22.144 2.176 27.757 3.529 57.472 13.861 97.627 64.841 97.627 123.995 0 70.51-57.363 127.89-127.853 127.89-70.546 0.019-127.909-57.362-127.909-127.872zM263.772 237.696h100.297c1.079-6.089 1.737-12.343 1.737-18.724 0-12.471-2.121-24.466-5.979-35.712h-41.563l-54.491 54.436zM146.633 218.972c0 60.435 49.152 109.604 109.605 109.604 47.415 0 87.772-30.336 103.003-72.594h-139.667l91.429-91.411 40.503-0.036c-14.5-25.125-39.077-44.507-69.339-51.785-3.877-0.951-15.762-2.487-21.267-2.925l-114.286 65.426v43.721zM201.453 255.836c10.002 0 18.121-8.137 18.121-18.121 0-10.002-8.119-18.139-18.121-18.139s-18.139 8.137-18.139 18.139c0 9.984 8.137 18.121 18.139 18.121z" />
<glyph unicode="&#xe097;" d="M391.985 219.374c-22.089 0-40.533-15.732-44.788-36.572h-184.716c-4.249 20.839-22.699 36.572-44.788 36.572-25.216 0-45.715-20.498-45.715-45.714s20.499-45.714 45.715-45.714c22.089 0 40.533 15.732 44.788 36.572h184.716c4.248-20.839 22.699-36.572 44.788-36.572 25.216 0 45.714 20.498 45.714 45.714s-20.504 45.714-45.714 45.714zM117.699 146.231c-15.123 0-27.428 12.307-27.428 27.428s12.306 27.428 27.428 27.428 27.428-12.307 27.428-27.428-12.306-27.428-27.428-27.428zM391.985 146.231c-15.123 0-27.428 12.307-27.428 27.428s12.307 27.428 27.428 27.428 27.428-12.307 27.428-27.428-12.307-27.428-27.428-27.428zM445.659 237.269c-1.213 1.213-29.842 29.305-77.556 30.092l-81.268 43.3-80.536-0.019c-4.663 0.286-116.359 6.516-167.516-60.587l-1.785-2.34-0.427-64.518h18.285l0.249 58.032c46.123 56.875 149.017 51.267 150.625 51.145h81.109l75.356-42.429 3.858-0.859c40.356 0 65.536-23.644 65.731-23.644l23.747-33.036-4.127-27.892h18.286l5.736 31.537-29.769 41.216z" />
<glyph unicode="&#xe098;" d="M247.101 274.133c-35.401 0-64.195 28.793-64.195 64.195s28.793 64.195 64.195 64.195 64.189-28.793 64.189-64.195-28.788-64.195-64.189-64.195zM247.101 384.244c-25.314 0-45.909-20.596-45.909-45.909s20.596-45.909 45.909-45.909 45.904 20.596 45.904 45.909-20.596 45.909-45.904 45.909zM402.341 347.337l-91.197 109.714h-128l-91.184-109.714h-0.244v-292.572l36.572-36.572h237.714l36.572 36.572v292.572h-0.231zM110.001 64.555v274.767l82.663 99.444h108.964l82.663-99.444v-274.767l-28.069-28.069-218.155-0.005-28.069 28.075zM183.143 182.766h128v-18.286h-128zM183.143 127.909h128v-18.286h-128z" />
<glyph unicode="&#xe099;" d="M164.571 310.857v-164.571h182.857v164.571h-182.857zM329.143 164.572h-146.286v109.714h146.286v-109.714zM255.982 182.857h18.285v73.143h-36.572v-18.285h18.286z" />
<glyph unicode="&#xe000a;" d="M0 475.429l512-512h-512z" />
</font>
</defs>
</svg>
